<?xml version="1.0" standalone="no"?>
<!DOCTYPE svg PUBLIC "-//W3C//DTD SVG 20010904//EN"
 "http://www.w3.org/TR/2001/REC-SVG-20010904/DTD/svg10.dtd">
<svg version="1.0" xmlns="http://www.w3.org/2000/svg"
 width="260.000000pt" height="260.000000pt" viewBox="0 0 260.000000 260.000000"
 preserveAspectRatio="xMidYMid meet">
<metadata>
Created by potrace 1.14, written by Peter Selinger 2001-2017
</metadata>
<g transform="translate(0.000000,260.000000) scale(0.100000,-0.100000)"
fill="#000000" stroke="none">
<path d="M0 1300 l0 -1300 1300 0 1300 0 0 1300 0 1300 -1300 0 -1300 0 0
-1300z m400 231 c0 -36 -3 -40 -27 -43 -27 -3 -28 -4 -33 -84 -3 -47 -11 -88
-19 -98 -11 -13 -11 -19 0 -32 8 -10 16 -51 19 -98 5 -80 6 -81 33 -84 24 -3
27 -7 27 -43 l0 -39 -49 0 c-34 0 -56 6 -75 21 -24 19 -26 26 -26 103 0 68 -4
88 -20 109 -11 14 -20 38 -20 54 0 16 9 36 20 46 17 14 20 29 20 99 0 106 17
128 97 128 l53 0 0 -39z m1940 29 c26 -14 40 -63 40 -147 0 -56 4 -75 15 -79
10 -4 15 -20 15 -44 0 -21 -7 -43 -15 -50 -11 -9 -15 -32 -15 -80 0 -77 -14
-126 -40 -140 -10 -6 -41 -10 -69 -10 l-51 0 0 40 c0 36 3 40 25 40 33 0 45
27 45 102 0 39 5 72 14 83 11 16 11 21 0 33 -9 9 -14 37 -14 78 0 77 -12 104
-45 104 -22 0 -25 4 -25 40 l0 40 51 0 c28 0 59 -4 69 -10z m-1622 -104 c45
-23 64 -51 60 -87 -6 -65 -108 -78 -108 -14 0 20 -5 25 -23 25 -35 0 -60 -33
-60 -80 0 -77 62 -107 103 -50 36 50 100 37 100 -21 0 -89 -150 -138 -245 -79
-76 47 -95 180 -37 259 40 55 147 79 210 47z m480 -8 c17 -17 15 -35 -9 -59
-18 -18 -20 -28 -14 -70 4 -27 10 -49 14 -49 4 0 14 37 24 81 9 45 22 88 28
95 7 8 31 14 55 14 55 0 67 -18 85 -117 13 -78 23 -91 32 -44 3 16 9 40 13 55
5 20 2 26 -10 26 -23 0 -39 36 -26 60 9 18 21 20 100 20 87 0 90 -1 96 -25 8
-34 -1 -53 -28 -57 -19 -3 -27 -18 -53 -103 -45 -143 -46 -145 -104 -145 -31
0 -53 5 -61 15 -7 9 -21 53 -30 98 l-17 82 -18 -80 c-25 -114 -26 -115 -90
-115 -32 0 -57 5 -62 13 -4 6 -22 62 -38 122 -26 97 -33 110 -53 113 -27 4
-37 23 -28 57 6 24 9 25 94 25 55 0 92 -4 100 -12z m750 -17 c3 -16 -3 -30
-17 -40 l-21 -16 22 -65 21 -65 22 65 c22 63 22 65 4 83 -11 10 -19 24 -19 31
0 28 28 37 112 34 l83 -3 0 -35 c0 -28 -4 -36 -22 -38 -30 -4 -33 -10 -89
-157 -57 -150 -100 -208 -168 -221 -85 -15 -161 35 -140 93 5 17 21 32 38 38
24 8 31 6 46 -13 10 -12 20 -28 23 -35 6 -16 47 20 47 42 -1 9 -22 68 -49 131
-42 103 -50 115 -74 118 -23 3 -27 8 -27 36 0 18 3 36 7 40 4 4 50 5 103 4 92
-3 95 -4 98 -27z m-1000 -187 c15 -10 22 -25 22 -47 0 -38 -7 -50 -38 -66 -44
-23 -92 10 -92 64 0 37 28 65 65 65 11 0 31 -7 43 -16z m740 0 c15 -10 22 -25
22 -47 0 -38 -7 -50 -38 -66 -44 -23 -92 10 -92 64 0 37 28 65 65 65 11 0 31
-7 43 -16z"/>
</g>
</svg>
